<?xml version="1.0" standalone="no"?>
<!DOCTYPE svg PUBLIC "-//W3C//DTD SVG 20010904//EN"
 "http://www.w3.org/TR/2001/REC-SVG-20010904/DTD/svg10.dtd">
<svg version="1.0" xmlns="http://www.w3.org/2000/svg"
 width="700.000000pt" height="700.000000pt" viewBox="0 0 700.000000 700.000000"
 preserveAspectRatio="xMidYMid meet">
<metadata>
Created by potrace 1.11, written by Peter Selinger 2001-2013
</metadata>
<g transform="translate(0.000000,700.000000) scale(0.100000,-0.100000)"
fill="#000000" stroke="none">
<path d="M3269 6996 c-2 -2 -42 -7 -89 -10 -47 -3 -96 -8 -110 -10 -14 -2 -46
-7 -71 -10 -1120 -153 -2123 -880 -2637 -1911 -155 -312 -283 -718 -326 -1035
-2 -19 -10 -80 -18 -135 -14 -112 -18 -606 -5 -720 78 -684 285 -1217 685
-1765 55 -75 65 -87 177 -216 235 -270 542 -522 865 -711 104 -61 286 -153
360 -183 30 -12 69 -29 87 -37 224 -98 610 -196 898 -229 28 -3 61 -8 75 -11
45 -9 553 -11 631 -3 42 4 105 11 140 15 35 4 125 18 199 31 1367 250 2463
1293 2778 2644 27 116 33 142 46 225 36 218 41 300 41 600 -1 306 -19 477 -81
755 -28 124 -38 158 -92 325 -243 752 -777 1431 -1464 1864 -54 33 -100 61
-103 61 -3 0 -24 12 -46 26 -125 78 -417 207 -623 273 -126 41 -366 102 -456
116 -25 4 -54 9 -65 11 -11 3 -56 9 -100 14 -44 6 -96 13 -115 16 -42 6 -575
16 -581 10z"/>
</g>
</svg>
